<?xml version="1.0" encoding="utf-8"?>
<svg xmlns="http://www.w3.org/2000/svg" viewBox="106.787 73.752 17.64 16.657" width="17.64px" height="16.657px">
  <path d="M 123.607 89.342 L 114.537 89.342 C 114.087 89.342 113.717 88.972 113.717 88.522 C 113.717 88.072 114.087 87.702 114.537 87.702 L 123.607 87.702 C 124.057 87.702 124.427 88.072 124.427 88.522 C 124.427 88.982 124.057 89.342 123.607 89.342 Z" style="stroke-width: 1; fill: rgb(255, 255, 255);" transform="matrix(1, 0, 0, 1, -1.4210854715202004e-14, 0)"/>
  <path d="M 123.607 83.049 L 114.537 83.049 C 114.087 83.049 113.717 82.679 113.717 82.229 C 113.717 81.779 114.087 81.409 114.537 81.409 L 123.607 81.409 C 124.057 81.409 124.427 81.779 124.427 82.229 C 124.427 82.679 124.057 83.049 123.607 83.049 Z" style="stroke-width: 1; fill: rgb(255, 255, 255);" transform="matrix(1, 0, 0, 1, -1.4210854715202004e-14, 0)"/>
  <path d="M 123.607 76.752 L 114.537 76.752 C 114.087 76.752 113.717 76.382 113.717 75.932 C 113.717 75.482 114.087 75.112 114.537 75.112 L 123.607 75.112 C 124.057 75.112 124.427 75.482 124.427 75.932 C 124.427 76.382 124.057 76.752 123.607 76.752 Z" style="stroke-width: 1; fill: rgb(255, 255, 255);" transform="matrix(1, 0, 0, 1, -1.4210854715202004e-14, 0)"/>
  <path d="M 108.517 78.112 C 108.297 78.112 108.087 78.022 107.937 77.872 L 107.027 76.962 C 106.707 76.642 106.707 76.122 107.027 75.802 C 107.347 75.482 107.867 75.482 108.187 75.802 L 108.517 76.132 L 110.657 73.992 C 110.977 73.672 111.497 73.672 111.817 73.992 C 112.137 74.312 112.137 74.832 111.817 75.152 L 109.097 77.872 C 108.937 78.022 108.737 78.112 108.517 78.112 Z" style="stroke-width: 1; fill: rgb(255, 255, 255);" transform="matrix(1, 0, 0, 1, -1.4210854715202004e-14, 0)"/>
  <path d="M 108.517 84.409 C 108.307 84.409 108.097 84.329 107.937 84.169 L 107.027 83.259 C 106.707 82.939 106.707 82.419 107.027 82.099 C 107.347 81.779 107.867 81.779 108.187 82.099 L 108.517 82.429 L 110.657 80.289 C 110.977 79.969 111.497 79.969 111.817 80.289 C 112.137 80.609 112.137 81.129 111.817 81.449 L 109.097 84.169 C 108.937 84.329 108.727 84.409 108.517 84.409 Z" style="stroke-width: 1; fill: rgb(255, 255, 255);" transform="matrix(1, 0, 0, 1, -1.4210854715202004e-14, 0)"/>
  <path d="M 108.517 90.409 C 108.307 90.409 108.097 90.329 107.937 90.169 L 107.027 89.259 C 106.707 88.939 106.707 88.419 107.027 88.099 C 107.347 87.779 107.867 87.779 108.187 88.099 L 108.517 88.429 L 110.657 86.289 C 110.977 85.969 111.497 85.969 111.817 86.289 C 112.137 86.609 112.137 87.129 111.817 87.449 L 109.097 90.169 C 108.937 90.329 108.727 90.409 108.517 90.409 Z" style="stroke-width: 1; fill: rgb(255, 255, 255);" transform="matrix(1, 0, 0, 1, -1.4210854715202004e-14, 0)"/>
</svg>