<?xml version="1.0" encoding="utf-8"?>
<svg xmlns="http://www.w3.org/2000/svg" viewBox="533.377 62.192 17.64 16.657" width="17.64px" height="16.657px">
  <path d="M 550.197 77.782 L 541.127 77.782 C 540.677 77.782 540.307 77.412 540.307 76.962 C 540.307 76.512 540.677 76.142 541.127 76.142 L 550.197 76.142 C 550.647 76.142 551.017 76.512 551.017 76.962 C 551.017 77.422 550.647 77.782 550.197 77.782 Z" style="stroke-width: 1; fill: rgb(198, 238, 52);"/>
  <path d="M 550.197 71.489 L 541.127 71.489 C 540.677 71.489 540.307 71.119 540.307 70.669 C 540.307 70.219 540.677 69.849 541.127 69.849 L 550.197 69.849 C 550.647 69.849 551.017 70.219 551.017 70.669 C 551.017 71.119 550.647 71.489 550.197 71.489 Z" style="stroke-width: 1; fill: rgb(198, 238, 52);"/>
  <path d="M 550.197 65.192 L 541.127 65.192 C 540.677 65.192 540.307 64.822 540.307 64.372 C 540.307 63.922 540.677 63.552 541.127 63.552 L 550.197 63.552 C 550.647 63.552 551.017 63.922 551.017 64.372 C 551.017 64.822 550.647 65.192 550.197 65.192 Z" style="stroke-width: 1; fill: rgb(198, 238, 52);"/>
  <path d="M 535.107 66.552 C 534.887 66.552 534.677 66.462 534.527 66.312 L 533.617 65.402 C 533.297 65.082 533.297 64.562 533.617 64.242 C 533.937 63.922 534.457 63.922 534.777 64.242 L 535.107 64.572 L 537.247 62.432 C 537.567 62.112 538.087 62.112 538.407 62.432 C 538.727 62.752 538.727 63.272 538.407 63.592 L 535.687 66.312 C 535.527 66.462 535.327 66.552 535.107 66.552 Z" style="stroke-width: 1; fill: rgb(198, 238, 52);"/>
  <path d="M 535.107 72.849 C 534.897 72.849 534.687 72.769 534.527 72.609 L 533.617 71.699 C 533.297 71.379 533.297 70.859 533.617 70.539 C 533.937 70.219 534.457 70.219 534.777 70.539 L 535.107 70.869 L 537.247 68.729 C 537.567 68.409 538.087 68.409 538.407 68.729 C 538.727 69.049 538.727 69.569 538.407 69.889 L 535.687 72.609 C 535.527 72.769 535.317 72.849 535.107 72.849 Z" style="stroke-width: 1; fill: rgb(198, 238, 52);"/>
  <path d="M 535.107 78.849 C 534.897 78.849 534.687 78.769 534.527 78.609 L 533.617 77.699 C 533.297 77.379 533.297 76.859 533.617 76.539 C 533.937 76.219 534.457 76.219 534.777 76.539 L 535.107 76.869 L 537.247 74.729 C 537.567 74.409 538.087 74.409 538.407 74.729 C 538.727 75.049 538.727 75.569 538.407 75.889 L 535.687 78.609 C 535.527 78.769 535.317 78.849 535.107 78.849 Z" style="stroke-width: 1; fill: rgb(198, 238, 52);"/>
</svg>